<?xml version="1.0" standalone="no"?><!DOCTYPE svg PUBLIC "-//W3C//DTD SVG 1.1//EN" "http://www.w3.org/Graphics/SVG/1.1/DTD/svg11.dtd"><svg t="1678272540493" class="icon" viewBox="0 0 1024 1024" version="1.1" xmlns="http://www.w3.org/2000/svg" p-id="2792" xmlns:xlink="http://www.w3.org/1999/xlink" width="200" height="200"><path d="M512 0c282.76736 0 512 229.23264 512 512S794.76736 1024 512 1024 0 794.76736 0 512 229.23264 0 512 0zM267.776 266.24c-45.11744-0.8192-83.1488 36.2496-83.456 81.34656a81.92 81.92 0 0 0 159.17056 27.91424c1.47456-4.096 5.3248-6.84032 9.66656-6.84032h332.14464c33.792 0 61.89056 26.99264 62.21824 60.78464a61.52192 61.52192 0 0 1-61.44 62.07488h-368.64a101.74464 101.74464 0 0 0-72.31488 30.1056A101.74464 101.74464 0 0 0 215.04 593.92c0 27.25888 10.69056 52.9408 30.08512 72.31488a101.86752 101.86752 0 0 0 72.31488 30.1056h353.40288c4.36224 0 8.192 2.72384 9.66656 6.81984A81.92 81.92 0 0 0 839.68 675.26656c-0.32768-45.11744-38.33856-82.16576-83.456-81.34656a81.92 81.92 0 0 0-75.776 54.66112 10.1376 10.1376 0 0 1-9.60512 6.77888H318.21824c-33.792 0-61.89056-27.01312-62.21824-60.80512a61.52192 61.52192 0 0 1 61.44-62.0544h368.64a101.74464 101.74464 0 0 0 72.31488-30.1056 101.84704 101.84704 0 0 0 30.08512-72.2944 101.74464 101.74464 0 0 0-30.08512-72.33536 101.86752 101.86752 0 0 0-72.31488-30.06464H353.15712c-4.3008 0-8.192-2.70336-9.60512-6.79936a82.06336 82.06336 0 0 0-75.776-54.64064z" fill="#53E17D" p-id="2793"></path></svg>