<?xml version="1.0" standalone="no"?><!DOCTYPE svg PUBLIC "-//W3C//DTD SVG 1.1//EN" "http://www.w3.org/Graphics/SVG/1.1/DTD/svg11.dtd"><svg t="1685348491010" class="icon" viewBox="0 0 1024 1024" version="1.1" xmlns="http://www.w3.org/2000/svg" p-id="9182" xmlns:xlink="http://www.w3.org/1999/xlink" width="200" height="200"><path d="M978.496 102.165333l6.976 6.976a22.677333 22.677333 0 0 1 3.648 27.2 332.8 332.8 0 0 0-26.069333 59.2 65.877333 65.877333 0 1 0-70.634667-71.317333 322.944 322.944 0 0 0 58.645333-25.834667 23.722667 23.722667 0 0 1 27.434667 3.776zM603.157333 492.8l-8.234666-8.234667a22.677333 22.677333 0 0 1-3.776-26.965333 327.189333 327.189333 0 0 0 23.765333-54.293333 65.898667 65.898667 0 1 0 70.058667 69.376 320.576 320.576 0 0 0-54.869334 24 23.786667 23.786667 0 0 1-26.944-3.882667z m12.8-297.066667a318.634667 318.634667 0 0 0-25.152-57.6 22.848 22.848 0 0 1 3.776-27.093333l7.765334-7.765333a23.466667 23.466667 0 0 1 27.093333-3.776 327.637333 327.637333 0 0 0 55.466667 24.341333 65.92 65.92 0 1 0-68.928 71.893333z m348.16 207.573334a333.738667 333.738667 0 0 0 24.682667 55.893333 22.826667 22.826667 0 0 1-3.648 27.093333l-7.317333 7.317334a22.570667 22.570667 0 0 1-16 6.634666 23.082667 23.082667 0 0 1-10.965334-2.858666 330.666667 330.666667 0 0 0-58.282666-25.6 65.856 65.856 0 1 0 71.552-68.458667z m-2.389333 82.069333a7.253333 7.253333 0 0 0 5.376-2.282667l7.317333-7.317333a7.616 7.616 0 0 0 1.258667-9.152 345.045333 345.045333 0 0 1 0.448-337.642667 7.808 7.808 0 0 0-1.258667-9.258666l-6.976-6.976a7.957333 7.957333 0 0 0-9.258666-1.258667 344.832 344.832 0 0 1-336.490667 1.024 7.786667 7.786667 0 0 0-9.152 1.258667l-7.765333 7.765333a7.616 7.616 0 0 0-1.258667 9.152 344.725333 344.725333 0 0 1 0.341333 333.973333 7.786667 7.786667 0 0 0 1.258667 9.152l8.106667 8.106667a7.786667 7.786667 0 0 0 9.152 1.258667 344.938667 344.938667 0 0 1 335.125333 0.917333 5.994667 5.994667 0 0 0 3.754667 1.216z m-172.928-105.834667a80 80 0 1 1 80-80 79.957333 79.957333 0 0 1-80.021333 79.914667z m-470.229333 121.386667a135.445333 135.445333 0 1 0-135.445334-135.552 135.466667 135.466667 0 0 0 135.424 135.466667z m431.125333 117.162667l-85.717333 102.528c0 1.706667-28.458667-42.069333-37.610667-56.234667-47.658667-73.045333-64.128-136.704-162.133333-136.704l-145.621334 0.106667-145.621333-0.106667c-130.517333 0-172.928 33.6-172.928 175.786667v275.008H112.426667l5.952-239.445334h28.010666v239.445334h344.512V707.733333s72 100.266667 94.058667 134.976c32.576 50.858667 66.858667 66.517333 103.658667 20.458667l145.493333-175.68a54.698667 54.698667 0 0 0-84.437333-69.482667z" fill="#6E5AF9" p-id="9183"></path></svg>